<svg xmlns="http://www.w3.org/2000/svg" viewBox="0 0 1280 442" width="1280" height="442" role="img" aria-label="Technical skills. Frontend: React.js, Next.js with App Router, SSR, ISR and SSG, Redux, React Hooks, Context API, HTML5, CSS3, Tailwind CSS, Material UI, Bootstrap, Responsive Web Design. Backend: Node.js, Express.js, Python, FastAPI, MVC Architecture. APIs and Authentication: REST API Design, JWT Authentication, Role-Based Access Control, OAuth with Google and Firebase. Databases: MongoDB, MySQL, Firebase, Data Modeling. AI and Generative AI: OpenAI API, Claude API, Gemini AI, LLM Applications, Prompt Engineering, Multi-Step AI Workflows, AI Workflow Orchestration. Languages: JavaScript ES6 plus, TypeScript, Python, SQL, Core Java. DevOps and Cloud: Nginx, Docker, HTTPS and SSL. Tools and Collaboration: Git, GitHub, Postman, Code Review, Testing, Debugging.">
  <title>Pooja Tanwar — Technical Skills</title>

  <defs>
    <linearGradient id="surface" x1="0%" y1="0%" x2="100%" y2="100%">
      <stop offset="0%"   stop-color="#FFFFFF"/>
      <stop offset="64%"  stop-color="#FBFCFE"/>
      <stop offset="100%" stop-color="#F4F7FB"/>
    </linearGradient>
    <radialGradient id="tint" cx="92%" cy="3%" r="56%">
      <stop offset="0%"   stop-color="#4F46E5" stop-opacity=".055"/>
      <stop offset="100%" stop-color="#4F46E5" stop-opacity="0"/>
    </radialGradient>
    <radialGradient id="tint2" cx="6%" cy="97%" r="50%">
      <stop offset="0%"   stop-color="#0EA5E9" stop-opacity=".045"/>
      <stop offset="100%" stop-color="#0EA5E9" stop-opacity="0"/>
    </radialGradient>
    <pattern id="dots" width="30" height="30" patternUnits="userSpaceOnUse">
      <circle cx="1.4" cy="1.4" r="1.2" fill="#CBD5E1" fill-opacity=".38"/>
    </pattern>
    <linearGradient id="hair" x1="0%" y1="0%" x2="100%" y2="0%">
      <stop offset="0%"   stop-color="#E2E8F0" stop-opacity="0"/>
      <stop offset="7%"   stop-color="#E2E8F0"/>
      <stop offset="93%"  stop-color="#E2E8F0"/>
      <stop offset="100%" stop-color="#E2E8F0" stop-opacity="0"/>
    </linearGradient>
    <clipPath id="frame"><rect x="1" y="1" width="1278" height="440" rx="22" ry="22"/></clipPath>
    <style>
      .sans   { font-family: 'Inter','Segoe UI','Helvetica Neue',Helvetica,Arial,sans-serif; }
      .lbl    { font-size: 12px; font-weight: 700; letter-spacing: 1.5px; fill: #0F172A; }
      .itm    { font-size: 13px; font-weight: 400; fill: #475569; }
      .kicker { font-size: 11.5px; font-weight: 600; letter-spacing: 2.4px; fill: #94A3B8; }
    </style>
  </defs>

  <g clip-path="url(#frame)">
    <rect x="1" y="1" width="1278" height="440" fill="url(#surface)"/>
    <rect x="1" y="1" width="1278" height="440" fill="url(#dots)"/>
    <rect x="1" y="1" width="1278" height="440" fill="url(#tint)"/>
    <rect x="1" y="1" width="1278" height="440" fill="url(#tint2)"/>

    <text class="sans kicker" x="46" y="36">TECHNICAL SKILLS</text>
    <rect x="46" y="52" width="1188" height="1" fill="url(#hair)"/>

    <!-- 1 · FRONTEND (two lines) -->
    <rect x="46" y="74" width="3" height="13" rx="1.5" fill="#0EA5E9"/>
    <text class="sans lbl" x="62" y="85">FRONTEND</text>
    <text class="sans itm" x="252" y="85">React.js  ·  Next.js (App Router, SSR, ISR, SSG)  ·  Redux  ·  React Hooks  ·  Context API</text>
    <text class="sans itm" x="252" y="106">HTML5  ·  CSS3  ·  Tailwind CSS  ·  Material UI  ·  Bootstrap  ·  Responsive Web Design</text>
    <rect x="46" y="124" width="1188" height="1" fill="url(#hair)"/>

    <!-- 2 · BACKEND -->
    <rect x="46" y="140" width="3" height="13" rx="1.5" fill="#06B6D4"/>
    <text class="sans lbl" x="62" y="151">BACKEND</text>
    <text class="sans itm" x="252" y="151">Node.js  ·  Express.js  ·  Python  ·  FastAPI  ·  MVC Architecture</text>
    <rect x="46" y="168" width="1188" height="1" fill="url(#hair)"/>

    <!-- 3 · APIS AND AUTH -->
    <rect x="46" y="184" width="3" height="13" rx="1.5" fill="#6366F1"/>
    <text class="sans lbl" x="62" y="195">APIS &amp; AUTH</text>
    <text class="sans itm" x="252" y="195">REST API Design  ·  JWT Authentication  ·  Role-Based Access Control  ·  OAuth (Google / Firebase)</text>
    <rect x="46" y="212" width="1188" height="1" fill="url(#hair)"/>

    <!-- 4 · DATABASES -->
    <rect x="46" y="228" width="3" height="13" rx="1.5" fill="#3B82F6"/>
    <text class="sans lbl" x="62" y="239">DATABASES</text>
    <text class="sans itm" x="252" y="239">MongoDB  ·  MySQL  ·  Firebase  ·  Data Modeling</text>
    <rect x="46" y="256" width="1188" height="1" fill="url(#hair)"/>

    <!-- 5 · AI / GENERATIVE AI -->
    <rect x="46" y="272" width="3" height="13" rx="1.5" fill="#8B5CF6"/>
    <text class="sans lbl" x="62" y="283">AI / GENERATIVE AI</text>
    <text class="sans itm" x="252" y="283">OpenAI API  ·  Claude API  ·  Gemini AI  ·  LLM Applications  ·  Prompt Engineering  ·  Multi-Step AI Workflows  ·  AI Workflow Orchestration</text>
    <rect x="46" y="300" width="1188" height="1" fill="url(#hair)"/>

    <!-- 6 · LANGUAGES -->
    <rect x="46" y="316" width="3" height="13" rx="1.5" fill="#4F46E5"/>
    <text class="sans lbl" x="62" y="327">LANGUAGES</text>
    <text class="sans itm" x="252" y="327">JavaScript (ES6+)  ·  TypeScript  ·  Python  ·  SQL  ·  Core Java</text>
    <rect x="46" y="344" width="1188" height="1" fill="url(#hair)"/>

    <!-- 7 · DEVOPS AND CLOUD -->
    <rect x="46" y="360" width="3" height="13" rx="1.5" fill="#0891B2"/>
    <text class="sans lbl" x="62" y="371">DEVOPS &amp; CLOUD</text>
    <text class="sans itm" x="252" y="371">Nginx  ·  Docker  ·  HTTPS / SSL</text>
    <rect x="46" y="388" width="1188" height="1" fill="url(#hair)"/>

    <!-- 8 · TOOLS AND COLLABORATION -->
    <rect x="46" y="404" width="3" height="13" rx="1.5" fill="#64748B"/>
    <text class="sans lbl" x="62" y="415">TOOLS &amp; COLLAB</text>
    <text class="sans itm" x="252" y="415">Git  ·  GitHub  ·  Postman  ·  Code Review  ·  Testing  ·  Debugging</text>

    <rect x="1" y="1" width="1278" height="440" rx="22" ry="22" fill="none" stroke="#E2E8F0" stroke-width="1.5"/>
  </g>
</svg>
